<!-- Фон голубой темы: звёзды, облако, месяц и горошины. Плитка та же 140×140,
     что и у розовой, — отличается только набором фигур и цветом. -->
<svg xmlns="http://www.w3.org/2000/svg" width="140" height="140" viewBox="0 0 140 140" fill="#E2EEFB">
  <g transform="translate(8 10) scale(1.15)">
    <path d="M12 2.8l2.7 5.9 6.4.8-4.7 4.4 1.2 6.3-5.6-3.1-5.6 3.1 1.2-6.3L2.9 9.5l6.4-.8z"/>
  </g>
  <g transform="translate(86 16) scale(1.1)">
    <path d="M12 3a9 9 0 109 9 7 7 0 01-9-9z"/>
  </g>
  <g transform="translate(44 76) scale(1.3)">
    <circle cx="8" cy="14" r="4"/><circle cx="13" cy="10.5" r="5.5"/>
    <circle cx="18" cy="14.5" r="3.5"/><rect x="7" y="14" width="11.5" height="4" rx="2"/>
  </g>
  <g transform="translate(98 94) scale(.8)">
    <path d="M12 2.8l2.7 5.9 6.4.8-4.7 4.4 1.2 6.3-5.6-3.1-5.6 3.1 1.2-6.3L2.9 9.5l6.4-.8z"/>
  </g>
  <circle cx="70" cy="22" r="2.6"/>
  <circle cx="20" cy="112" r="3"/>
  <circle cx="126" cy="58" r="2.6"/>
  <circle cx="62" cy="128" r="2.4"/>
</svg>
